<svg width="157" height="197" viewBox="0 0 157 197" fill="none" xmlns="http://www.w3.org/2000/svg">
<ellipse cx="77.5" cy="179.136" rx="61.5" ry="9.3495" fill="#E2E2E2"/>
<path fill-rule="evenodd" clip-rule="evenodd" d="M47 40.0339C47 19.3232 63.7893 2.53394 84.5 2.53394C105.211 2.53394 122 19.3233 122 40.0339V80.966H131V69.0534C131 62.1498 136.596 56.5534 143.5 56.5534C150.404 56.5534 156 62.1498 156 69.0534V89.2233C156 95.8507 150.627 101.223 144 101.223H122V174.981H47V133.427H13C6.37258 133.427 1 128.055 1 121.427V87.0482C1 77.0912 9.07179 69.0194 19.0288 69.0194C28.9859 69.0194 37.0577 77.0912 37.0577 87.0482V104.219H47V40.0339Z" fill="#E2E2E2"/>
<path d="M122 80.966H121V81.966H122V80.966ZM131 80.966V81.966H132V80.966H131ZM122 101.223V100.223H121V101.223H122ZM122 174.981V175.981H123V174.981H122ZM47 174.981H46V175.981H47V174.981ZM47 133.427H48V132.427H47V133.427ZM37.0577 104.219H36.0577V105.219H37.0577V104.219ZM47 104.219V105.219H48V104.219H47ZM84.5 1.53394C63.237 1.53394 46 18.7709 46 40.0339H48C48 19.8755 64.3416 3.53394 84.5 3.53394V1.53394ZM123 40.0339C123 18.771 105.763 1.53394 84.5 1.53394V3.53394C104.658 3.53394 121 19.8755 121 40.0339H123ZM123 80.966V40.0339H121V80.966H123ZM131 79.966H122V81.966H131V79.966ZM130 69.0534V80.966H132V69.0534H130ZM143.5 55.5534C136.044 55.5534 130 61.5975 130 69.0534H132C132 62.7021 137.149 57.5534 143.5 57.5534V55.5534ZM157 69.0534C157 61.5975 150.956 55.5534 143.5 55.5534V57.5534C149.851 57.5534 155 62.7021 155 69.0534H157ZM157 89.2233V69.0534H155V89.2233H157ZM144 102.223C151.18 102.223 157 96.403 157 89.2233H155C155 95.2984 150.075 100.223 144 100.223V102.223ZM122 102.223H144V100.223H122V102.223ZM123 174.981V101.223H121V174.981H123ZM47 175.981H122V173.981H47V175.981ZM46 133.427V174.981H48V133.427H46ZM13 134.427H47V132.427H13V134.427ZM0 121.427C0 128.607 5.8203 134.427 13 134.427V132.427C6.92486 132.427 2 127.502 2 121.427H0ZM0 87.0482V121.427H2V87.0482H0ZM19.0288 68.0194C8.51951 68.0194 0 76.5389 0 87.0482H2C2 77.6434 9.62408 70.0194 19.0288 70.0194V68.0194ZM38.0577 87.0482C38.0577 76.5389 29.5382 68.0194 19.0288 68.0194V70.0194C28.4336 70.0194 36.0577 77.6434 36.0577 87.0482H38.0577ZM38.0577 104.219V87.0482H36.0577V104.219H38.0577ZM47 103.219H37.0577V105.219H47V103.219ZM46 40.0339V104.219H48V40.0339H46Z" fill="#ABABAB"/>
<path d="M117.45 12.4296L110.327 20.4607" stroke="#ABABAB" stroke-width="2" stroke-linecap="round" stroke-linejoin="round"/>
<path d="M104.123 17.0776L96.9998 25.1087" stroke="#ABABAB" stroke-width="2" stroke-linecap="round" stroke-linejoin="round"/>
<path d="M126.996 42.0171L116.69 44.1671" stroke="#ABABAB" stroke-width="2" stroke-linecap="round" stroke-linejoin="round"/>
<path d="M97 1.49512L99.318 12.1465" stroke="#ABABAB" stroke-width="2" stroke-linecap="round" stroke-linejoin="round"/>
<path d="M84.7017 10.3151L82.34 20.956" stroke="#ABABAB" stroke-width="2" stroke-linecap="round" stroke-linejoin="round"/>
<path d="M45 32.6602L55.2681 34.9985" stroke="#ABABAB" stroke-width="2" stroke-linecap="round" stroke-linejoin="round"/>
<path d="M115.406 34.2083L105 32.6602" stroke="#ABABAB" stroke-width="2" stroke-linecap="round" stroke-linejoin="round"/>
<path d="M43 53.4214L51.7783 51.3592" stroke="#ABABAB" stroke-width="2" stroke-linecap="round" stroke-linejoin="round"/>
<path d="M52 16.0388L61.215 21.2933" stroke="#ABABAB" stroke-width="2" stroke-linecap="round" stroke-linejoin="round"/>
<path d="M73 2.53394L73.8702 13.4166" stroke="#ABABAB" stroke-width="2" stroke-linecap="round" stroke-linejoin="round"/>
<path d="M123.421 186.263C122.68 186.328 121.903 186.35 121.081 186.328C114.706 186.16 110.677 183.489 106.683 178.324C105.863 177.265 105.2 176.216 104.666 175.166C102.147 170.211 102.505 165.215 102.893 158.815C103.324 151.719 103.475 146.666 108.108 141.434C117.768 130.527 136.717 138.489 143.295 151.64C148.587 162.218 147.188 173.544 138.935 181.827C134.377 186.402 128.968 187.447 123.421 186.263Z" fill="white"/>
<path d="M123.3 159.491C123.3 159.491 125.149 156.136 127.134 156.009C130.189 155.814 130.48 160.305 130.259 163.476C129.924 168.283 125.855 172.583 121.313 171.598C116.371 170.527 116.252 163.947 117.328 158.823C118.599 152.768 122.976 147.189 128.83 148.38C134.574 149.549 135.778 156.04 135.881 162.119C136.02 170.41 131.455 179.352 123.48 178.998C117.817 178.747 114.249 175.13 112.053 169.702C109.834 164.219 111.307 159.952 113.754 154.575C116.813 147.851 120.4 141.872 127.557 142.043C135.376 142.229 138.865 149.82 140.737 157.71C142.432 164.852 142.022 170.67 137.374 176.219C130.29 184.676 116.952 183.887 109.75 175.539C103.224 167.975 103.751 157.74 109.509 149.53C113.064 144.46 116.627 142.017 122.575 140.945C138.013 138.163 146.256 170.082 134.433 180.763C130.194 184.593 126.698 186.476 121.081 186.328C114.706 186.16 110.677 183.489 106.683 178.324C101.997 172.265 102.423 166.572 102.893 158.815C103.324 151.719 103.475 146.666 108.108 141.434C117.768 130.527 136.717 138.489 143.295 151.64C148.587 162.218 147.188 173.544 138.935 181.827C126.999 193.808 109.228 181.582 98.417 168.499C93.8925 163.024 90.091 152.172 90.091 152.172" stroke="#ABABAB" stroke-width="2" stroke-linecap="round" stroke-linejoin="round"/>
</svg>
