<svg width="24" height="31" viewBox="0 0 24 31" fill="none" xmlns="http://www.w3.org/2000/svg">
<path fill-rule="evenodd" clip-rule="evenodd" d="M22 12C22 17.5228 17.5228 22 12 22C6.47715 22 2 17.5228 2 12C2 6.47715 6.47715 2 12 2C17.5228 2 22 6.47715 22 12ZM24 12C24 18.6274 18.6274 24 12 24C10.097 24 8.29747 23.557 6.69888 22.7686L1.848 30.53C1.55529 30.9983 0.938338 31.1407 0.470001 30.848C0.00166452 30.5553 -0.140709 29.9383 0.152002 29.47L4.98505 21.7371C1.96537 19.5578 0 16.0084 0 12C0 5.37258 5.37258 0 12 0C18.6274 0 24 5.37258 24 12Z" fill="white"/>
</svg>
